<svg xmlns="http://www.w3.org/2000/svg" viewBox="0 0 948.48 460.16"><defs><style>.cls-1,.cls-3{isolation:isolate;font-family:SegoeUISymbol, Segoe UI Symbol;}.cls-1{font-size:50px;}.cls-1,.cls-3,.cls-4{fill:#36485c;}.cls-2{font-size:12px;font-family:MyriadPro-Regular, Myriad Pro;}.cls-3{opacity:0.25;font-size:25px;}.cls-5{fill:#d65050;}.cls-6{fill:none;stroke:#d65050;stroke-miterlimit:10;}</style></defs><title>Asset 22</title><g id="Layer_2" data-name="Layer 2"><g id="Layer_1-2" data-name="Layer 1"><text class="cls-1" transform="translate(137.95 104.43)">Upload/Download File Laravel</text><text class="cls-2" transform="translate(0 10.04)">.</text><text class="cls-2" transform="translate(946 10.04)">.</text><text class="cls-2" transform="translate(946 457.04)">.</text><text class="cls-2" transform="translate(0 457.04)">.</text><text class="cls-3" transform="translate(729.5 440.43)">coffeequery.com</text><path class="cls-4" d="M839,170"/><path class="cls-5" d="M576.6,379.52,436.72,413.81l-19.53,4.79,1.85,1-12.52-51.87-1,1.85L541.11,338l19.5-4.54-1.85-1,16.78,48.94c.62,1.82,3.52,1,2.89-.8l-16.78-48.94a1.54,1.54,0,0,0-1.85-1l-135.64,31.6-19.5,4.54a1.52,1.52,0,0,0-1,1.85l12.52,51.87a1.52,1.52,0,0,0,1.85,1L557.87,387.2l19.53-4.79C579.27,382,578.48,379.06,576.6,379.52Z"/><path class="cls-5" d="M404.23,366.42l-42,11.3,1.85,1L350,305.85,327.53,189.48l-5.19-26.91-1.85,1.85,24.58,3.8L360,170.53c.91.14,2.61.77,3.51.54.47-.12-.68-1.63-.72-.7-.14,3.23,1.5,7.33,2.14,10.46l4.58,22.42,26.6,130.29,7.09,34.72c.39,1.89,3.28,1.09,2.89-.8L392.42,300.6l-21.79-106.7-5-24.64a1.45,1.45,0,0,0-1-1l-43.27-6.69a1.52,1.52,0,0,0-1.85,1.85l14.06,72.92L356,352.66l5.19,26.91a1.52,1.52,0,0,0,1.85,1l42-11.3A1.5,1.5,0,0,0,404.23,366.42Z"/><path class="cls-5" d="M508.62,272.09H416.88l1.5,1.5V175.73l-1.5,1.5h33.4c13.78,0,27.93,1,41.68,0a9.67,9.67,0,0,1,1.4,0c-.39,0-1-.87.07.33,2.37,2.66,5.73,4.81,8.46,7.09,1.35,1.14,2.66,2.4,4.1,3.43,1.13.81,1.42,1.94,1.13.31a18.61,18.61,0,0,1,0,3.18v82a1.5,1.5,0,0,0,3,0V193.42c0-3.12.62-5.16-1.78-7.26-3-2.61-6.08-5.1-9.12-7.65-1.62-1.36-3.56-3.7-5.65-4.28-3-.83-7.45,0-10.53,0H416.88a1.52,1.52,0,0,0-1.5,1.5v97.86a1.52,1.52,0,0,0,1.5,1.5h91.73A1.5,1.5,0,0,0,508.62,272.09Z"/><polyline class="cls-6" points="509.42 189.98 493.74 191.69 492.14 174.96"/><line class="cls-6" x1="425.73" y1="192.04" x2="485.28" y2="192.04"/><line class="cls-6" x1="425.73" y1="202.91" x2="498.15" y2="202.91"/><line class="cls-6" x1="425.73" y1="224.66" x2="498.15" y2="224.66"/><line class="cls-6" x1="425.73" y1="213.79" x2="498.15" y2="213.79"/><line class="cls-6" x1="425.73" y1="235.53" x2="498.15" y2="235.53"/><line class="cls-6" x1="425.73" y1="257.28" x2="498.15" y2="257.28"/><line class="cls-6" x1="425.73" y1="246.41" x2="498.15" y2="246.41"/><path class="cls-5" d="M599.6,317.83l-40.89,11.3,1.85,1-22.29-69.08-1.45,1.9,43.26-5.16-1.45-1.1,19.92,62.95c.58,1.83,3.48,1.05,2.89-.8l-19.92-62.95a1.52,1.52,0,0,0-1.45-1.1L536.82,260a1.52,1.52,0,0,0-1.45,1.9L557.66,331a1.53,1.53,0,0,0,1.85,1l40.89-11.3A1.5,1.5,0,0,0,599.6,317.83Z"/><path class="cls-5" d="M496,300.11l.66-25.24,9.07.33-.66,25.24Z"/><path class="cls-5" d="M499,309.22,484.16,289l8.2.3,8.43,11h.33l8-9.43,8.26.3-15.18,18.1Z"/><path class="cls-5" d="M484.28,306.77l.87,25.23-9.07.43-.87-25.23Z"/><path class="cls-5" d="M480.78,297.92l16,18.89-8.2.39-9.08-10.28-.33,0L471.75,317l-8.25.39,14-19.33Z"/></g></g></svg>